<svg width="30" height="30" viewBox="0 0 30 30" fill="none" xmlns="http://www.w3.org/2000/svg">
<path d="M7.80253 23.591C7.40702 23.9865 7.38819 24.6928 7.81194 25.1071C8.22628 25.5215 8.93255 25.512 9.32806 25.1165L15.0912 19.344L20.8637 25.1165C21.2686 25.5215 21.9655 25.5215 22.3798 25.1071C22.7847 24.6834 22.7942 23.9959 22.3798 23.591L16.6167 17.8185L22.3798 12.0554C22.7942 11.6504 22.7942 10.9536 22.3798 10.5392C21.9561 10.1343 21.2686 10.1249 20.8637 10.5298L15.0912 16.3024L9.32806 10.5298C8.93255 10.1343 8.21687 10.1155 7.81194 10.5392C7.3976 10.9536 7.40702 11.6598 7.80253 12.0554L13.5751 17.8185L7.80253 23.591Z" fill="#ECF0F4"/>
</svg>
