<svg width="30" height="31" viewBox="0 0 30 31" fill="none" xmlns="http://www.w3.org/2000/svg">
<path d="M7.80253 23.594C7.40702 23.9896 7.38819 24.6958 7.81194 25.1102C8.22628 25.5245 8.93255 25.5151 9.32806 25.1196L15.0912 19.347L20.8637 25.1196C21.2686 25.5245 21.9655 25.5245 22.3798 25.1102C22.7847 24.6864 22.7942 23.999 22.3798 23.594L16.6167 17.8215L22.3798 12.0584C22.7942 11.6535 22.7942 10.9566 22.3798 10.5423C21.9561 10.1374 21.2686 10.1279 20.8637 10.5329L15.0912 16.3054L9.32806 10.5329C8.93255 10.1374 8.21687 10.1185 7.81194 10.5423C7.3976 10.9566 7.40702 11.6629 7.80253 12.0584L13.5751 17.8215L7.80253 23.594Z" fill="#ECF0F4"/>
</svg>
