<svg width="30" height="31" viewBox="0 0 30 31" fill="none" xmlns="http://www.w3.org/2000/svg">
<path d="M7.80253 23.5949C7.40702 23.9904 7.38819 24.6967 7.81194 25.111C8.22628 25.5254 8.93255 25.5159 9.32806 25.1204L15.0912 19.3479L20.8637 25.1204C21.2686 25.5254 21.9655 25.5254 22.3798 25.111C22.7847 24.6873 22.7942 23.9998 22.3798 23.5949L16.6167 17.8224L22.3798 12.0593C22.7942 11.6543 22.7942 10.9575 22.3798 10.5431C21.9561 10.1382 21.2686 10.1288 20.8637 10.5337L15.0912 16.3063L9.32806 10.5337C8.93255 10.1382 8.21687 10.1194 7.81194 10.5431C7.3976 10.9575 7.40702 11.6637 7.80253 12.0593L13.5751 17.8224L7.80253 23.5949Z" fill="#ECF0F4"/>
</svg>
