<svg width="30" height="31" viewBox="0 0 30 31" fill="none" xmlns="http://www.w3.org/2000/svg">
<path d="M7.80253 23.5959C7.40702 23.9914 7.38819 24.6977 7.81194 25.112C8.22628 25.5263 8.93255 25.5169 9.32806 25.1214L15.0912 19.3489L20.8637 25.1214C21.2686 25.5263 21.9655 25.5263 22.3798 25.112C22.7847 24.6882 22.7942 24.0008 22.3798 23.5959L16.6167 17.8233L22.3798 12.0602C22.7942 11.6553 22.7942 10.9585 22.3798 10.5441C21.9561 10.1392 21.2686 10.1298 20.8637 10.5347L15.0912 16.3072L9.32806 10.5347C8.93255 10.1392 8.21687 10.1204 7.81194 10.5441C7.3976 10.9585 7.40702 11.6647 7.80253 12.0602L13.5751 17.8233L7.80253 23.5959Z" fill="#ECF0F4"/>
</svg>
