<svg width="60" height="21" viewBox="0 0 60 21" fill="none" xmlns="http://www.w3.org/2000/svg">
<path d="M20 4.28585C19.2639 4.62046 18.4704 4.84034 17.6482 4.94551C18.4895 4.43881 19.1396 3.63575 19.4455 2.67017C18.652 3.14818 17.7725 3.48279 16.8451 3.674C16.0899 2.85182 15.0287 2.3738 13.8241 2.3738C11.5774 2.3738 9.74187 4.20937 9.74187 6.47514C9.74187 6.80019 9.78012 7.11568 9.84704 7.41205C6.4436 7.23996 3.413 5.60516 1.39579 3.12906C1.04207 3.73136 0.8413 4.43881 0.8413 5.18451C0.8413 6.60899 1.55832 7.87094 2.6673 8.58795C1.98853 8.58795 1.35755 8.39675 0.80306 8.10994V8.13862C0.80306 10.1272 2.21797 11.7906 4.09178 12.1635C3.49018 12.3281 2.8586 12.351 2.24665 12.2304C2.50632 13.0454 3.01485 13.7585 3.70078 14.2695C4.38671 14.7805 5.21553 15.0638 6.07075 15.0794C4.62106 16.227 2.82409 16.8473 0.975143 16.8384C0.650096 16.8384 0.325048 16.8193 0 16.7811C1.81644 17.9474 3.97706 18.6262 6.29063 18.6262C13.8241 18.6262 17.9637 12.3738 17.9637 6.95316C17.9637 6.77151 17.9637 6.59943 17.9541 6.41778C18.7572 5.84417 19.4455 5.11759 20 4.28585Z" fill="#ECF0F4"/>
<path d="M50.0022 5.37267C47.1645 5.37267 44.8756 7.66189 44.8756 10.5C44.8756 13.3381 47.1645 15.6273 50.0022 15.6273C52.8399 15.6273 55.1288 13.3381 55.1288 10.5C55.1288 7.66189 52.8399 5.37267 50.0022 5.37267ZM50.0022 13.8334C48.1684 13.8334 46.6693 12.3385 46.6693 10.5C46.6693 8.66148 48.164 7.16657 50.0022 7.16657C51.8405 7.16657 53.3352 8.66148 53.3352 10.5C53.3352 12.3385 51.836 13.8334 50.0022 13.8334V13.8334ZM56.5343 5.16293C56.5343 5.82784 55.9989 6.35887 55.3385 6.35887C54.6737 6.35887 54.1428 5.82337 54.1428 5.16293C54.1428 4.50249 54.6782 3.967 55.3385 3.967C55.9989 3.967 56.5343 4.50249 56.5343 5.16293ZM59.9297 6.37671C59.8539 4.7747 59.488 3.35565 58.3146 2.18649C57.1456 1.01733 55.7267 0.651416 54.1249 0.571092C52.4741 0.477381 47.5259 0.477381 45.8751 0.571092C44.2777 0.646953 42.8589 1.01287 41.6854 2.18203C40.512 3.35119 40.1506 4.77024 40.0703 6.37225C39.9766 8.02335 39.9766 12.9722 40.0703 14.6233C40.1461 16.2253 40.512 17.6444 41.6854 18.8135C42.8589 19.9827 44.2733 20.3486 45.8751 20.4289C47.5259 20.5226 52.4741 20.5226 54.1249 20.4289C55.7267 20.353 57.1456 19.9871 58.3146 18.8135C59.4835 17.6444 59.8494 16.2253 59.9297 14.6233C60.0234 12.9722 60.0234 8.02781 59.9297 6.37671V6.37671ZM57.797 16.3949C57.449 17.2695 56.7752 17.9433 55.8963 18.2959C54.58 18.818 51.4568 18.6975 50.0022 18.6975C48.5477 18.6975 45.42 18.8135 44.1082 18.2959C43.2337 17.9478 42.56 17.274 42.2075 16.3949C41.6854 15.0785 41.8059 11.9548 41.8059 10.5C41.8059 9.04525 41.6899 5.91708 42.2075 4.60513C42.5555 3.73049 43.2292 3.05667 44.1082 2.70413C45.4244 2.18203 48.5477 2.30252 50.0022 2.30252C51.4568 2.30252 54.5845 2.18649 55.8963 2.70413C56.7708 3.0522 57.4445 3.72603 57.797 4.60513C58.319 5.92155 58.1985 9.04525 58.1985 10.5C58.1985 11.9548 58.319 15.0829 57.797 16.3949Z" fill="#ECF0F4"/>
</svg>
