<svg width="31" height="30" viewBox="0 0 31 30" fill="none" xmlns="http://www.w3.org/2000/svg">
<path d="M25.5 8.91205C24.7639 9.24665 23.9704 9.46654 23.1482 9.5717C23.9895 9.06501 24.6396 8.26195 24.9455 7.29637C24.152 7.77438 23.2725 8.10899 22.3451 8.30019C21.5899 7.47801 20.5287 7 19.3241 7C17.0774 7 15.2419 8.83556 15.2419 11.1013C15.2419 11.4264 15.2801 11.7419 15.347 12.0382C11.9436 11.8662 8.913 10.2314 6.89579 7.75526C6.54207 8.35755 6.3413 9.06501 6.3413 9.81071C6.3413 11.2352 7.05832 12.4971 8.1673 13.2142C7.48853 13.2142 6.85755 13.0229 6.30306 12.7361V12.7648C6.30306 14.7533 7.71797 16.4168 9.59178 16.7897C8.99018 16.9543 8.3586 16.9772 7.74665 16.8566C8.00632 17.6716 8.51485 18.3847 9.20078 18.8957C9.88671 19.4067 10.7155 19.69 11.5707 19.7055C10.1211 20.8532 8.32409 21.4735 6.47514 21.4646C6.1501 21.4646 5.82505 21.4455 5.5 21.4073C7.31644 22.5736 9.47706 23.2524 11.7906 23.2524C19.3241 23.2524 23.4637 17 23.4637 11.5794C23.4637 11.3977 23.4637 11.2256 23.4541 11.044C24.2572 10.4704 24.9455 9.74379 25.5 8.91205Z" fill="#ECF0F4"/>
</svg>
