<svg width="20" height="20" viewBox="0 0 20 20" fill="none" xmlns="http://www.w3.org/2000/svg">
<path d="M5.3888 12.739H8.99931V16.3495C8.99931 16.7165 9.30117 17.0243 9.67406 17.0243C10.0469 17.0243 10.3488 16.7165 10.3488 16.3495V12.739H13.9593C14.3263 12.739 14.6341 12.4371 14.6341 12.0643C14.6341 11.6914 14.3263 11.3895 13.9593 11.3895H10.3488V7.779C10.3488 7.41203 10.0469 7.10425 9.67406 7.10425C9.30117 7.10425 8.99931 7.41203 8.99931 7.779V11.3895H5.3888C5.02183 11.3895 4.71405 11.6914 4.71405 12.0643C4.71405 12.4371 5.02183 12.739 5.3888 12.739Z" fill="#ECF0F4"/>
</svg>
