<svg width="20" height="21" viewBox="0 0 20 21" fill="none" xmlns="http://www.w3.org/2000/svg">
<path d="M5.20168 15.7324C4.93801 15.996 4.92546 16.4669 5.20796 16.7431C5.48419 17.0193 5.95503 17.0131 6.2187 16.7494L10.0608 12.901L13.9091 16.7494C14.1791 17.0193 14.6436 17.0193 14.9199 16.7431C15.1898 16.4606 15.1961 16.0023 14.9199 15.7324L11.0778 11.884L14.9199 8.04195C15.1961 7.772 15.1961 7.30743 14.9199 7.0312C14.6374 6.76125 14.1791 6.75498 13.9091 7.02493L10.0608 10.8733L6.2187 7.02493C5.95503 6.76125 5.47791 6.7487 5.20796 7.0312C4.93173 7.30743 4.93801 7.77827 5.20168 8.04195L9.05004 11.884L5.20168 15.7324Z" fill="#ECF0F4"/>
</svg>
