<svg width="20" height="21" viewBox="0 0 20 21" fill="none" xmlns="http://www.w3.org/2000/svg">
<path d="M5.20168 15.7302C4.93801 15.9939 4.92546 16.4647 5.20796 16.7409C5.48419 17.0171 5.95503 17.0109 6.2187 16.7472L10.0608 12.8988L13.9091 16.7472C14.1791 17.0171 14.6436 17.0171 14.9199 16.7409C15.1898 16.4584 15.1961 16.0001 14.9199 15.7302L11.0778 11.8818L14.9199 8.03975C15.1961 7.7698 15.1961 7.30523 14.9199 7.02901C14.6374 6.75906 14.1791 6.75278 13.9091 7.02273L10.0608 10.8711L6.2187 7.02273C5.95503 6.75906 5.47791 6.7465 5.20796 7.02901C4.93173 7.30523 4.93801 7.77608 5.20168 8.03975L9.05004 11.8818L5.20168 15.7302Z" fill="#ECF0F4"/>
</svg>
