<svg width="20" height="21" viewBox="0 0 20 21" fill="none" xmlns="http://www.w3.org/2000/svg">
<path d="M5.20168 15.7292C4.93801 15.9929 4.92546 16.4637 5.20796 16.7399C5.48419 17.0162 5.95503 17.0099 6.2187 16.7462L10.0608 12.8979L13.9091 16.7462C14.1791 17.0162 14.6436 17.0162 14.9199 16.7399C15.1898 16.4574 15.1961 15.9992 14.9199 15.7292L11.0778 11.8808L14.9199 8.03877C15.1961 7.76882 15.1961 7.30426 14.9199 7.02803C14.6374 6.75808 14.1791 6.7518 13.9091 7.02175L10.0608 10.8701L6.2187 7.02175C5.95503 6.75808 5.47791 6.74553 5.20796 7.02803C4.93173 7.30426 4.93801 7.7751 5.20168 8.03877L9.05004 11.8808L5.20168 15.7292Z" fill="#ECF0F4"/>
</svg>
