<svg width="30" height="30" viewBox="0 0 30 30" fill="none" xmlns="http://www.w3.org/2000/svg">
<path d="M7.80253 23.592C7.40702 23.9875 7.38819 24.6937 7.81194 25.1081C8.22628 25.5224 8.93255 25.513 9.32806 25.1175L15.0912 19.345L20.8637 25.1175C21.2686 25.5224 21.9655 25.5224 22.3798 25.1081C22.7847 24.6843 22.7942 23.9969 22.3798 23.592L16.6167 17.8194L22.3798 12.0563C22.7942 11.6514 22.7942 10.9546 22.3798 10.5402C21.9561 10.1353 21.2686 10.1259 20.8637 10.5308L15.0912 16.3033L9.32806 10.5308C8.93255 10.1353 8.21687 10.1165 7.81194 10.5402C7.3976 10.9546 7.40702 11.6608 7.80253 12.0563L13.5751 17.8194L7.80253 23.592Z" fill="#ECF0F4"/>
</svg>
