<svg width="30" height="31" viewBox="0 0 30 31" fill="none" xmlns="http://www.w3.org/2000/svg">
<path d="M7.80253 23.5929C7.40702 23.9885 7.38819 24.6947 7.81194 25.1091C8.22628 25.5234 8.93255 25.514 9.32806 25.1185L15.0912 19.3459L20.8637 25.1185C21.2686 25.5234 21.9655 25.5234 22.3798 25.1091C22.7847 24.6853 22.7942 23.9979 22.3798 23.5929L16.6167 17.8204L22.3798 12.0573C22.7942 11.6524 22.7942 10.9555 22.3798 10.5412C21.9561 10.1363 21.2686 10.1268 20.8637 10.5318L15.0912 16.3043L9.32806 10.5318C8.93255 10.1363 8.21687 10.1174 7.81194 10.5412C7.3976 10.9555 7.40702 11.6618 7.80253 12.0573L13.5751 17.8204L7.80253 23.5929Z" fill="#ECF0F4"/>
</svg>
