<svg width="60" height="21" viewBox="0 0 60 21" fill="none" xmlns="http://www.w3.org/2000/svg">
<path d="M30.0022 5.37259C27.1645 5.37259 24.8756 7.66182 24.8756 10.4999C24.8756 13.338 27.1645 15.6273 30.0022 15.6273C32.8399 15.6273 35.1288 13.338 35.1288 10.4999C35.1288 7.66182 32.8399 5.37259 30.0022 5.37259ZM30.0022 13.8334C28.1684 13.8334 26.6693 12.3384 26.6693 10.4999C26.6693 8.6614 28.164 7.16649 30.0022 7.16649C31.8405 7.16649 33.3352 8.6614 33.3352 10.4999C33.3352 12.3384 31.836 13.8334 30.0022 13.8334V13.8334ZM36.5343 5.16286C36.5343 5.82776 35.9989 6.35879 35.3385 6.35879C34.6737 6.35879 34.1428 5.8233 34.1428 5.16286C34.1428 4.50242 34.6782 3.96693 35.3385 3.96693C35.9989 3.96693 36.5343 4.50242 36.5343 5.16286ZM39.9297 6.37664C39.8539 4.77463 39.488 3.35557 38.3146 2.18642C37.1456 1.01726 35.7267 0.651339 34.1249 0.571016C32.4741 0.477305 27.5259 0.477305 25.8751 0.571016C24.2777 0.646877 22.8589 1.0128 21.6854 2.18195C20.512 3.35111 20.1506 4.77016 20.0703 6.37218C19.9766 8.02328 19.9766 12.9721 20.0703 14.6232C20.1461 16.2252 20.512 17.6443 21.6854 18.8134C22.8589 19.9826 24.2733 20.3485 25.8751 20.4288C27.5259 20.5225 32.4741 20.5225 34.1249 20.4288C35.7267 20.353 37.1456 19.9871 38.3146 18.8134C39.4835 17.6443 39.8494 16.2252 39.9297 14.6232C40.0234 12.9721 40.0234 8.02774 39.9297 6.37664V6.37664ZM37.797 16.3948C37.449 17.2694 36.7752 17.9433 35.8963 18.2958C34.58 18.8179 31.4568 18.6974 30.0022 18.6974C28.5477 18.6974 25.42 18.8134 24.1082 18.2958C23.2337 17.9477 22.56 17.2739 22.2075 16.3948C21.6854 15.0784 21.8059 11.9547 21.8059 10.4999C21.8059 9.04517 21.6899 5.91701 22.2075 4.60505C22.5555 3.73042 23.2292 3.05659 24.1082 2.70406C25.4244 2.18195 28.5477 2.30244 30.0022 2.30244C31.4568 2.30244 34.5845 2.18642 35.8963 2.70406C36.7708 3.05213 37.4445 3.72595 37.797 4.60505C38.319 5.92147 38.1985 9.04517 38.1985 10.4999C38.1985 11.9547 38.319 15.0828 37.797 16.3948Z" fill="#ECF0F4"/>
</svg>
