<svg width="60" height="17" viewBox="0 0 60 17" fill="none" xmlns="http://www.w3.org/2000/svg">
<path d="M40 2.28585C39.2639 2.62046 38.4704 2.84034 37.6482 2.9455C38.4895 2.43881 39.1396 1.63575 39.4455 0.670169C38.652 1.14818 37.7725 1.48279 36.8451 1.67399C36.0899 0.851814 35.0287 0.373802 33.8241 0.373802C31.5774 0.373802 29.7419 2.20937 29.7419 4.47514C29.7419 4.80019 29.7801 5.11568 29.847 5.41204C26.4436 5.23996 23.413 3.60516 21.3958 1.12906C21.0421 1.73136 20.8413 2.43881 20.8413 3.18451C20.8413 4.60898 21.5583 5.87094 22.6673 6.58795C21.9885 6.58795 21.3576 6.39675 20.8031 6.10994V6.13862C20.8031 8.12715 22.218 9.79063 24.0918 10.1635C23.4902 10.3281 22.8586 10.351 22.2467 10.2304C22.5063 11.0454 23.0149 11.7585 23.7008 12.2695C24.3867 12.7805 25.2155 13.0638 26.0707 13.0794C24.6211 14.227 22.8241 14.8473 20.9751 14.8384C20.6501 14.8384 20.325 14.8193 20 14.7811C21.8164 15.9474 23.9771 16.6262 26.2906 16.6262C33.8241 16.6262 37.9637 10.3738 37.9637 4.95315C37.9637 4.77151 37.9637 4.59942 37.9541 4.41778C38.7572 3.84417 39.4455 3.11759 40 2.28585Z" fill="#ECF0F4"/>
</svg>
