<svg width="60" height="21" viewBox="0 0 60 21" fill="none" xmlns="http://www.w3.org/2000/svg">
<path d="M30.0022 5.37267C27.1645 5.37267 24.8756 7.66189 24.8756 10.5C24.8756 13.3381 27.1645 15.6273 30.0022 15.6273C32.8399 15.6273 35.1288 13.3381 35.1288 10.5C35.1288 7.66189 32.8399 5.37267 30.0022 5.37267ZM30.0022 13.8334C28.1684 13.8334 26.6693 12.3385 26.6693 10.5C26.6693 8.66148 28.164 7.16657 30.0022 7.16657C31.8405 7.16657 33.3352 8.66148 33.3352 10.5C33.3352 12.3385 31.836 13.8334 30.0022 13.8334V13.8334ZM36.5343 5.16293C36.5343 5.82784 35.9989 6.35887 35.3385 6.35887C34.6737 6.35887 34.1428 5.82337 34.1428 5.16293C34.1428 4.50249 34.6782 3.967 35.3385 3.967C35.9989 3.967 36.5343 4.50249 36.5343 5.16293ZM39.9297 6.37671C39.8539 4.7747 39.488 3.35565 38.3146 2.18649C37.1456 1.01733 35.7267 0.651416 34.1249 0.571092C32.4741 0.477381 27.5259 0.477381 25.8751 0.571092C24.2777 0.646953 22.8589 1.01287 21.6854 2.18203C20.512 3.35119 20.1506 4.77024 20.0703 6.37225C19.9766 8.02335 19.9766 12.9722 20.0703 14.6233C20.1461 16.2253 20.512 17.6444 21.6854 18.8135C22.8589 19.9827 24.2733 20.3486 25.8751 20.4289C27.5259 20.5226 32.4741 20.5226 34.1249 20.4289C35.7267 20.353 37.1456 19.9871 38.3146 18.8135C39.4835 17.6444 39.8494 16.2253 39.9297 14.6233C40.0234 12.9722 40.0234 8.02781 39.9297 6.37671V6.37671ZM37.797 16.3949C37.449 17.2695 36.7752 17.9433 35.8963 18.2959C34.58 18.818 31.4568 18.6975 30.0022 18.6975C28.5477 18.6975 25.42 18.8135 24.1082 18.2959C23.2337 17.9478 22.56 17.274 22.2075 16.3949C21.6854 15.0785 21.8059 11.9548 21.8059 10.5C21.8059 9.04525 21.6899 5.91708 22.2075 4.60513C22.5555 3.73049 23.2292 3.05667 24.1082 2.70413C25.4244 2.18203 28.5477 2.30252 30.0022 2.30252C31.4568 2.30252 34.5845 2.18649 35.8963 2.70413C36.7708 3.0522 37.4445 3.72603 37.797 4.60513C38.319 5.92155 38.1985 9.04525 38.1985 10.5C38.1985 11.9548 38.319 15.0829 37.797 16.3949Z" fill="#ECF0F4"/>
</svg>
