<svg width="20" height="20" viewBox="0 0 20 20" fill="none" xmlns="http://www.w3.org/2000/svg">
<path d="M5.20168 15.7282C4.93801 15.9919 4.92546 16.4627 5.20796 16.739C5.48419 17.0152 5.95503 17.0089 6.2187 16.7452L10.0608 12.8969L13.9091 16.7452C14.1791 17.0152 14.6436 17.0152 14.9199 16.739C15.1898 16.4565 15.1961 15.9982 14.9199 15.7282L11.0778 11.8799L14.9199 8.0378C15.1961 7.76785 15.1961 7.30328 14.9199 7.02705C14.6374 6.7571 14.1791 6.75083 13.9091 7.02078L10.0608 10.8691L6.2187 7.02078C5.95503 6.7571 5.47791 6.74455 5.20796 7.02705C4.93173 7.30328 4.93801 7.77412 5.20168 8.0378L9.05004 11.8799L5.20168 15.7282Z" fill="#ECF0F4"/>
</svg>
