<svg width="20" height="21" viewBox="0 0 20 21" fill="none" xmlns="http://www.w3.org/2000/svg">
<path d="M5.20168 15.7314C4.93801 15.9951 4.92546 16.4659 5.20796 16.7421C5.48419 17.0184 5.95503 17.0121 6.2187 16.7484L10.0608 12.9001L13.9091 16.7484C14.1791 17.0184 14.6436 17.0184 14.9199 16.7421C15.1898 16.4596 15.1961 16.0014 14.9199 15.7314L11.0778 11.883L14.9199 8.04097C15.1961 7.77102 15.1961 7.30646 14.9199 7.03023C14.6374 6.76028 14.1791 6.754 13.9091 7.02395L10.0608 10.8723L6.2187 7.02395C5.95503 6.76028 5.47791 6.74772 5.20796 7.03023C4.93173 7.30646 4.93801 7.7773 5.20168 8.04097L9.05004 11.883L5.20168 15.7314Z" fill="#ECF0F4"/>
</svg>
