<svg width="20" height="20" viewBox="0 0 20 20" fill="none" xmlns="http://www.w3.org/2000/svg">
<path d="M5.20168 15.7273C4.93801 15.9909 4.92546 16.4618 5.20796 16.738C5.48419 17.0142 5.95503 17.0079 6.2187 16.7443L10.0608 12.8959L13.9091 16.7443C14.1791 17.0142 14.6436 17.0142 14.9199 16.738C15.1898 16.4555 15.1961 15.9972 14.9199 15.7273L11.0778 11.8789L14.9199 8.03682C15.1961 7.76687 15.1961 7.30231 14.9199 7.02608C14.6374 6.75613 14.1791 6.74985 13.9091 7.0198L10.0608 10.8682L6.2187 7.0198C5.95503 6.75613 5.47791 6.74357 5.20796 7.02608C4.93173 7.30231 4.93801 7.77315 5.20168 8.03682L9.05004 11.8789L5.20168 15.7273Z" fill="#ECF0F4"/>
</svg>
