<svg width="304" height="18" viewBox="0 0 304 18" fill="none" xmlns="http://www.w3.org/2000/svg">
<g filter="url(#filter0_d_385_7850)">
<path d="M7.66774 4.056C7.66774 4.01267 7.68074 3.978 7.70674 3.952C7.74141 3.91733 7.78041 3.9 7.82374 3.9H9.66974C9.71307 3.9 9.74774 3.91733 9.77374 3.952C9.80841 3.978 9.82574 4.01267 9.82574 4.056V12.844C9.82574 12.8873 9.80841 12.9263 9.77374 12.961C9.74774 12.987 9.71307 13 9.66974 13H7.82374C7.78041 13 7.74141 12.987 7.70674 12.961C7.68074 12.9263 7.66774 12.8873 7.66774 12.844V9.412C7.66774 9.36867 7.64607 9.347 7.60274 9.347H5.92574C5.88241 9.347 5.86074 9.36867 5.86074 9.412V12.844C5.86074 12.8873 5.84341 12.9263 5.80874 12.961C5.78274 12.987 5.74807 13 5.70474 13H3.85874C3.8154 13 3.7764 12.987 3.74174 12.961C3.71574 12.9263 3.70274 12.8873 3.70274 12.844V4.056C3.70274 4.01267 3.71574 3.978 3.74174 3.952C3.7764 3.91733 3.8154 3.9 3.85874 3.9H5.70474C5.74807 3.9 5.78274 3.91733 5.80874 3.952C5.84341 3.978 5.86074 4.01267 5.86074 4.056V7.436C5.86074 7.47933 5.88241 7.501 5.92574 7.501H7.60274C7.64607 7.501 7.66774 7.47933 7.66774 7.436V4.056ZM15.3919 13.13C14.7679 13.13 14.2176 13.0043 13.7409 12.753C13.2642 12.5017 12.8916 12.1463 12.6229 11.687C12.3629 11.2277 12.2329 10.6947 12.2329 10.088V6.812C12.2329 6.214 12.3629 5.68967 12.6229 5.239C12.8916 4.77967 13.2642 4.42433 13.7409 4.173C14.2176 3.92167 14.7679 3.796 15.3919 3.796C16.0159 3.796 16.5662 3.92167 17.0429 4.173C17.5196 4.42433 17.8879 4.77967 18.1479 5.239C18.4166 5.68967 18.5509 6.214 18.5509 6.812V10.088C18.5509 10.6947 18.4166 11.2277 18.1479 11.687C17.8879 12.1463 17.5196 12.5017 17.0429 12.753C16.5662 13.0043 16.0159 13.13 15.3919 13.13ZM15.3919 11.271C15.6952 11.271 15.9379 11.1713 16.1199 10.972C16.3019 10.764 16.3929 10.4953 16.3929 10.166V6.76C16.3929 6.43067 16.2976 6.162 16.1069 5.954C15.9249 5.746 15.6866 5.642 15.3919 5.642C15.0886 5.642 14.8459 5.746 14.6639 5.954C14.4819 6.15333 14.3909 6.422 14.3909 6.76V10.166C14.3909 10.4953 14.4819 10.764 14.6639 10.972C14.8459 11.1713 15.0886 11.271 15.3919 11.271ZM26.0414 4.004C26.076 3.93467 26.1367 3.9 26.2234 3.9H28.0564C28.0997 3.9 28.1344 3.91733 28.1604 3.952C28.195 3.978 28.2124 4.01267 28.2124 4.056V12.844C28.2124 12.8873 28.195 12.9263 28.1604 12.961C28.1344 12.987 28.0997 13 28.0564 13H26.2104C26.167 13 26.128 12.987 26.0934 12.961C26.0674 12.9263 26.0544 12.8873 26.0544 12.844V7.449C26.0544 7.41433 26.0457 7.397 26.0284 7.397C26.011 7.38833 25.9937 7.397 25.9764 7.423L24.9624 9.113C24.9277 9.18233 24.867 9.217 24.7804 9.217H24.4164C24.3297 9.217 24.269 9.18233 24.2344 9.113L23.2204 7.423C23.203 7.397 23.1857 7.38833 23.1684 7.397C23.151 7.397 23.1424 7.41433 23.1424 7.449V12.844C23.1424 12.8873 23.125 12.9263 23.0904 12.961C23.0644 12.987 23.0297 13 22.9864 13H21.1404C21.097 13 21.058 12.987 21.0234 12.961C20.9974 12.9263 20.9844 12.8873 20.9844 12.844V4.056C20.9844 4.01267 20.9974 3.978 21.0234 3.952C21.058 3.91733 21.097 3.9 21.1404 3.9H22.9734C23.06 3.9 23.1207 3.93467 23.1554 4.004L24.5594 6.37C24.5854 6.422 24.6114 6.422 24.6374 6.37L26.0414 4.004ZM36.508 5.59C36.508 5.63333 36.4907 5.67233 36.456 5.707C36.43 5.733 36.3953 5.746 36.352 5.746H32.998C32.9547 5.746 32.933 5.76767 32.933 5.811V7.436C32.933 7.47933 32.9547 7.501 32.998 7.501H35.026C35.0693 7.501 35.104 7.51833 35.13 7.553C35.1647 7.579 35.182 7.61367 35.182 7.657V9.191C35.182 9.23433 35.1647 9.27333 35.13 9.308C35.104 9.334 35.0693 9.347 35.026 9.347H32.998C32.9547 9.347 32.933 9.36867 32.933 9.412V11.089C32.933 11.1323 32.9547 11.154 32.998 11.154H36.352C36.3953 11.154 36.43 11.1713 36.456 11.206C36.4907 11.232 36.508 11.2667 36.508 11.31V12.844C36.508 12.8873 36.4907 12.9263 36.456 12.961C36.43 12.987 36.3953 13 36.352 13H30.931C30.8877 13 30.8487 12.987 30.814 12.961C30.788 12.9263 30.775 12.8873 30.775 12.844V4.056C30.775 4.01267 30.788 3.978 30.814 3.952C30.8487 3.91733 30.8877 3.9 30.931 3.9H36.352C36.3953 3.9 36.43 3.91733 36.456 3.952C36.4907 3.978 36.508 4.01267 36.508 4.056V5.59Z" fill="#ECF0F4"/>
<path d="M82.4662 13C82.3969 13 82.3492 12.9653 82.3232 12.896L80.8152 9.022C80.8066 8.996 80.7892 8.983 80.7632 8.983H79.3722C79.3376 8.983 79.3202 9.00033 79.3202 9.035V12.87C79.3202 12.9567 79.2769 13 79.1902 13H78.2022C78.1156 13 78.0722 12.9567 78.0722 12.87V4.03C78.0722 3.94333 78.1156 3.9 78.2022 3.9H81.1142C81.8422 3.9 82.4272 4.13833 82.8692 4.615C83.3112 5.09167 83.5322 5.71567 83.5322 6.487C83.5322 7.06767 83.3979 7.566 83.1292 7.982C82.8606 8.398 82.4922 8.684 82.0242 8.84C81.9982 8.84867 81.9896 8.87033 81.9982 8.905L83.5842 12.844L83.5972 12.896C83.5972 12.9653 83.5582 13 83.4802 13H82.4662ZM79.3722 4.979C79.3376 4.979 79.3202 4.99633 79.3202 5.031V7.943C79.3202 7.97767 79.3376 7.995 79.3722 7.995H80.9452C81.3439 7.995 81.6646 7.86067 81.9072 7.592C82.1586 7.31467 82.2842 6.95067 82.2842 6.5C82.2842 6.04067 82.1629 5.67233 81.9202 5.395C81.6776 5.11767 81.3526 4.979 80.9452 4.979H79.3722ZM89.0779 13.117C88.5232 13.117 88.0335 13.0043 87.6089 12.779C87.1929 12.545 86.8679 12.22 86.6339 11.804C86.3999 11.388 86.2829 10.907 86.2829 10.361V6.539C86.2829 6.00167 86.3999 5.525 86.6339 5.109C86.8679 4.693 87.1929 4.37233 87.6089 4.147C88.0335 3.913 88.5232 3.796 89.0779 3.796C89.6325 3.796 90.1222 3.913 90.5469 4.147C90.9715 4.37233 91.3009 4.693 91.5349 5.109C91.7689 5.525 91.8859 6.00167 91.8859 6.539V10.361C91.8859 10.907 91.7689 11.388 91.5349 11.804C91.3009 12.22 90.9715 12.545 90.5469 12.779C90.1222 13.0043 89.6325 13.117 89.0779 13.117ZM89.0779 12.025C89.5459 12.025 89.9229 11.8777 90.2089 11.583C90.4949 11.2883 90.6379 10.8983 90.6379 10.413V6.513C90.6379 6.02767 90.4949 5.63333 90.2089 5.33C89.9229 5.02667 89.5459 4.875 89.0779 4.875C88.6185 4.875 88.2459 5.02667 87.9599 5.33C87.6739 5.63333 87.5309 6.02767 87.5309 6.513V10.413C87.5309 10.8897 87.6739 11.2797 87.9599 11.583C88.2459 11.8777 88.6185 12.025 89.0779 12.025ZM99.5236 13C99.4456 13 99.3979 12.961 99.3806 12.883L98.9906 11.375C98.9819 11.349 98.9603 11.336 98.9256 11.336H96.0526C96.0093 11.336 95.9876 11.349 95.9876 11.375L95.6106 12.883C95.6019 12.961 95.5543 13 95.4676 13H94.4536C94.4103 13 94.3756 12.987 94.3496 12.961C94.3323 12.935 94.3279 12.9003 94.3366 12.857L96.7416 4.017C96.7589 3.939 96.8066 3.9 96.8846 3.9H98.1066C98.1846 3.9 98.2323 3.939 98.2496 4.017L100.668 12.857L100.681 12.896C100.681 12.9653 100.637 13 100.551 13H99.5236ZM96.2606 10.296C96.2519 10.3047 96.2519 10.3177 96.2606 10.335C96.2779 10.3437 96.2953 10.348 96.3126 10.348H98.6656C98.6829 10.348 98.6959 10.3437 98.7046 10.335C98.7219 10.3177 98.7263 10.3047 98.7176 10.296L97.5086 5.59C97.4999 5.57267 97.4913 5.564 97.4826 5.564C97.4739 5.564 97.4653 5.57267 97.4566 5.59L96.2606 10.296ZM103.535 13C103.449 13 103.405 12.9567 103.405 12.87V4.03C103.405 3.94333 103.449 3.9 103.535 3.9H106.174C106.98 3.9 107.622 4.12967 108.098 4.589C108.584 5.04833 108.826 5.65933 108.826 6.422V10.478C108.826 11.2407 108.584 11.8517 108.098 12.311C107.622 12.7703 106.98 13 106.174 13H103.535ZM104.653 11.869C104.653 11.9037 104.671 11.921 104.705 11.921L106.2 11.908C106.616 11.908 106.946 11.7693 107.188 11.492C107.44 11.206 107.57 10.8247 107.578 10.348V6.552C107.578 6.06667 107.453 5.68533 107.201 5.408C106.95 5.122 106.612 4.979 106.187 4.979H104.705C104.671 4.979 104.653 4.99633 104.653 5.031V11.869ZM116.943 3.991C116.986 3.93033 117.038 3.9 117.099 3.9H118.087C118.173 3.9 118.217 3.94333 118.217 4.03V12.87C118.217 12.9567 118.173 13 118.087 13H117.099C117.012 13 116.969 12.9567 116.969 12.87V6.318C116.969 6.292 116.96 6.279 116.943 6.279C116.925 6.27033 116.912 6.279 116.904 6.305L115.357 8.866C115.313 8.92667 115.261 8.957 115.201 8.957H114.993C114.932 8.957 114.88 8.92667 114.837 8.866L113.277 6.331C113.268 6.305 113.255 6.29633 113.238 6.305C113.22 6.305 113.212 6.318 113.212 6.344V12.87C113.212 12.9567 113.168 13 113.082 13H112.094C112.007 13 111.964 12.9567 111.964 12.87V4.03C111.964 3.94333 112.007 3.9 112.094 3.9H113.082C113.142 3.9 113.194 3.93033 113.238 3.991L115.058 6.929C115.066 6.93767 115.079 6.942 115.097 6.942C115.114 6.942 115.127 6.93767 115.136 6.929L116.943 3.991ZM126.126 13C126.048 13 126 12.961 125.983 12.883L125.593 11.375C125.584 11.349 125.563 11.336 125.528 11.336H122.655C122.612 11.336 122.59 11.349 122.59 11.375L122.213 12.883C122.204 12.961 122.157 13 122.07 13H121.056C121.013 13 120.978 12.987 120.952 12.961C120.935 12.935 120.93 12.9003 120.939 12.857L123.344 4.017C123.361 3.939 123.409 3.9 123.487 3.9H124.709C124.787 3.9 124.835 3.939 124.852 4.017L127.27 12.857L127.283 12.896C127.283 12.9653 127.24 13 127.153 13H126.126ZM122.863 10.296C122.854 10.3047 122.854 10.3177 122.863 10.335C122.88 10.3437 122.898 10.348 122.915 10.348H125.268C125.285 10.348 125.298 10.3437 125.307 10.335C125.324 10.3177 125.329 10.3047 125.32 10.296L124.111 5.59C124.102 5.57267 124.094 5.564 124.085 5.564C124.076 5.564 124.068 5.57267 124.059 5.59L122.863 10.296ZM133.011 3.887C133.747 3.887 134.337 4.12967 134.779 4.615C135.229 5.09167 135.455 5.72433 135.455 6.513C135.455 7.28433 135.229 7.90833 134.779 8.385C134.337 8.853 133.747 9.087 133.011 9.087H131.269C131.234 9.087 131.217 9.10433 131.217 9.139V12.87C131.217 12.9567 131.173 13 131.087 13H130.099C130.012 13 129.969 12.9567 129.969 12.87V4.017C129.969 3.93033 130.012 3.887 130.099 3.887H133.011ZM132.829 8.086C133.245 8.086 133.578 7.94733 133.83 7.67C134.09 7.384 134.22 7.007 134.22 6.539C134.22 6.06233 134.09 5.681 133.83 5.395C133.578 5.109 133.245 4.966 132.829 4.966H131.269C131.234 4.966 131.217 4.98333 131.217 5.018V8.034C131.217 8.06867 131.234 8.086 131.269 8.086H132.829Z" fill="#ECF0F4"/>
<path d="M182.485 3.9C182.571 3.9 182.615 3.94333 182.615 4.03V4.862C182.615 4.94867 182.571 4.992 182.485 4.992H180.392C180.357 4.992 180.34 5.00933 180.34 5.044V12.87C180.34 12.9567 180.296 13 180.21 13H179.222C179.135 13 179.092 12.9567 179.092 12.87V5.044C179.092 5.00933 179.074 4.992 179.04 4.992H177.038C176.951 4.992 176.908 4.94867 176.908 4.862V4.03C176.908 3.94333 176.951 3.9 177.038 3.9H182.485ZM189.677 4.03C189.677 3.94333 189.72 3.9 189.807 3.9H190.795C190.881 3.9 190.925 3.94333 190.925 4.03V12.87C190.925 12.9567 190.881 13 190.795 13H189.807C189.72 13 189.677 12.9567 189.677 12.87V9.022C189.677 8.98733 189.659 8.97 189.625 8.97H186.791C186.756 8.97 186.739 8.98733 186.739 9.022V12.87C186.739 12.9567 186.695 13 186.609 13H185.621C185.534 13 185.491 12.9567 185.491 12.87V4.03C185.491 3.94333 185.534 3.9 185.621 3.9H186.609C186.695 3.9 186.739 3.94333 186.739 4.03V7.839C186.739 7.87367 186.756 7.891 186.791 7.891H189.625C189.659 7.891 189.677 7.87367 189.677 7.839V4.03ZM199.427 4.849C199.427 4.93567 199.384 4.979 199.297 4.979H195.527C195.492 4.979 195.475 4.99633 195.475 5.031V7.839C195.475 7.87367 195.492 7.891 195.527 7.891H198.01C198.097 7.891 198.14 7.93433 198.14 8.021V8.84C198.14 8.92667 198.097 8.97 198.01 8.97H195.527C195.492 8.97 195.475 8.98733 195.475 9.022V11.869C195.475 11.9037 195.492 11.921 195.527 11.921H199.297C199.384 11.921 199.427 11.9643 199.427 12.051V12.87C199.427 12.9567 199.384 13 199.297 13H194.357C194.27 13 194.227 12.9567 194.227 12.87V4.03C194.227 3.94333 194.27 3.9 194.357 3.9H199.297C199.384 3.9 199.427 3.94333 199.427 4.03V4.849ZM211.603 3.9C211.69 3.9 211.733 3.94333 211.733 4.03V4.862C211.733 4.94867 211.69 4.992 211.603 4.992H209.51C209.475 4.992 209.458 5.00933 209.458 5.044V12.87C209.458 12.9567 209.415 13 209.328 13H208.34C208.253 13 208.21 12.9567 208.21 12.87V5.044C208.21 5.00933 208.193 4.992 208.158 4.992H206.156C206.069 4.992 206.026 4.94867 206.026 4.862V4.03C206.026 3.94333 206.069 3.9 206.156 3.9H211.603ZM219.809 4.849C219.809 4.93567 219.766 4.979 219.679 4.979H215.909C215.874 4.979 215.857 4.99633 215.857 5.031V7.839C215.857 7.87367 215.874 7.891 215.909 7.891H218.392C218.479 7.891 218.522 7.93433 218.522 8.021V8.84C218.522 8.92667 218.479 8.97 218.392 8.97H215.909C215.874 8.97 215.857 8.98733 215.857 9.022V11.869C215.857 11.9037 215.874 11.921 215.909 11.921H219.679C219.766 11.921 219.809 11.9643 219.809 12.051V12.87C219.809 12.9567 219.766 13 219.679 13H214.739C214.652 13 214.609 12.9567 214.609 12.87V4.03C214.609 3.94333 214.652 3.9 214.739 3.9H219.679C219.766 3.9 219.809 3.94333 219.809 4.03V4.849ZM227.489 13C227.411 13 227.363 12.961 227.346 12.883L226.956 11.375C226.947 11.349 226.926 11.336 226.891 11.336H224.018C223.975 11.336 223.953 11.349 223.953 11.375L223.576 12.883C223.567 12.961 223.52 13 223.433 13H222.419C222.376 13 222.341 12.987 222.315 12.961C222.298 12.935 222.293 12.9003 222.302 12.857L224.707 4.017C224.724 3.939 224.772 3.9 224.85 3.9H226.072C226.15 3.9 226.198 3.939 226.215 4.017L228.633 12.857L228.646 12.896C228.646 12.9653 228.603 13 228.516 13H227.489ZM224.226 10.296C224.217 10.3047 224.217 10.3177 224.226 10.335C224.243 10.3437 224.261 10.348 224.278 10.348H226.631C226.648 10.348 226.661 10.3437 226.67 10.335C226.687 10.3177 226.692 10.3047 226.683 10.296L225.474 5.59C225.465 5.57267 225.457 5.564 225.448 5.564C225.439 5.564 225.431 5.57267 225.422 5.59L224.226 10.296ZM236.337 3.991C236.38 3.93033 236.432 3.9 236.493 3.9H237.481C237.567 3.9 237.611 3.94333 237.611 4.03V12.87C237.611 12.9567 237.567 13 237.481 13H236.493C236.406 13 236.363 12.9567 236.363 12.87V6.318C236.363 6.292 236.354 6.279 236.337 6.279C236.319 6.27033 236.306 6.279 236.298 6.305L234.751 8.866C234.707 8.92667 234.655 8.957 234.595 8.957H234.387C234.326 8.957 234.274 8.92667 234.231 8.866L232.671 6.331C232.662 6.305 232.649 6.29633 232.632 6.305C232.614 6.305 232.606 6.318 232.606 6.344V12.87C232.606 12.9567 232.562 13 232.476 13H231.488C231.401 13 231.358 12.9567 231.358 12.87V4.03C231.358 3.94333 231.401 3.9 231.488 3.9H232.476C232.536 3.9 232.588 3.93033 232.632 3.991L234.452 6.929C234.46 6.93767 234.473 6.942 234.491 6.942C234.508 6.942 234.521 6.93767 234.53 6.929L236.337 3.991Z" fill="#ECF0F4"/>
<path d="M285.525 4.849C285.525 4.93567 285.482 4.979 285.395 4.979H281.638C281.604 4.979 281.586 4.99633 281.586 5.031V7.839C281.586 7.87367 281.604 7.891 281.638 7.891H284.108C284.195 7.891 284.238 7.93433 284.238 8.021V8.84C284.238 8.92667 284.195 8.97 284.108 8.97H281.638C281.604 8.97 281.586 8.98733 281.586 9.022V12.87C281.586 12.9567 281.543 13 281.456 13H280.468C280.382 13 280.338 12.9567 280.338 12.87V4.03C280.338 3.94333 280.382 3.9 280.468 3.9H285.395C285.482 3.9 285.525 3.94333 285.525 4.03V4.849ZM292.127 13C292.049 13 292.001 12.961 291.984 12.883L291.594 11.375C291.585 11.349 291.563 11.336 291.529 11.336H288.656C288.612 11.336 288.591 11.349 288.591 11.375L288.214 12.883C288.205 12.961 288.157 13 288.071 13H287.057C287.013 13 286.979 12.987 286.953 12.961C286.935 12.935 286.931 12.9003 286.94 12.857L289.345 4.017C289.362 3.939 289.41 3.9 289.488 3.9H290.71C290.788 3.9 290.835 3.939 290.853 4.017L293.271 12.857L293.284 12.896C293.284 12.9653 293.24 13 293.154 13H292.127ZM288.864 10.296C288.855 10.3047 288.855 10.3177 288.864 10.335C288.881 10.3437 288.898 10.348 288.916 10.348H291.269C291.286 10.348 291.299 10.3437 291.308 10.335C291.325 10.3177 291.329 10.3047 291.321 10.296L290.112 5.59C290.103 5.57267 290.094 5.564 290.086 5.564C290.077 5.564 290.068 5.57267 290.06 5.59L288.864 10.296ZM298.249 3.796C298.786 3.796 299.258 3.913 299.666 4.147C300.073 4.37233 300.389 4.693 300.615 5.109C300.84 5.525 300.953 6.00167 300.953 6.539V10.4C300.953 11.0847 300.771 11.6653 300.407 12.142C300.043 12.61 299.549 12.909 298.925 13.039C298.89 13.0477 298.873 13.0693 298.873 13.104V14.287C298.873 14.3737 298.829 14.417 298.743 14.417H297.755C297.668 14.417 297.625 14.3737 297.625 14.287V13.104C297.625 13.0693 297.607 13.0477 297.573 13.039C296.949 12.909 296.455 12.61 296.091 12.142C295.727 11.6653 295.545 11.0847 295.545 10.4V6.539C295.545 6.00167 295.657 5.525 295.883 5.109C296.108 4.693 296.424 4.37233 296.832 4.147C297.248 3.913 297.72 3.796 298.249 3.796ZM299.705 6.448C299.705 5.98 299.57 5.603 299.302 5.317C299.033 5.02233 298.682 4.875 298.249 4.875C297.815 4.875 297.464 5.02233 297.196 5.317C296.927 5.603 296.793 5.98 296.793 6.448V10.452C296.793 10.92 296.927 11.3013 297.196 11.596C297.464 11.882 297.815 12.025 298.249 12.025C298.682 12.025 299.033 11.882 299.302 11.596C299.57 11.3013 299.705 10.92 299.705 10.452V6.448Z" fill="#ECF0F4"/>
</g>
<defs>
<filter id="filter0_d_385_7850" x="0" y="-3" width="305" height="22" filterUnits="userSpaceOnUse" color-interpolation-filters="sRGB">
<feFlood flood-opacity="0" result="BackgroundImageFix"/>
<feColorMatrix in="SourceAlpha" type="matrix" values="0 0 0 0 0 0 0 0 0 0 0 0 0 0 0 0 0 0 127 0" result="hardAlpha"/>
<feOffset/>
<feGaussianBlur stdDeviation="1.5"/>
<feComposite in2="hardAlpha" operator="out"/>
<feColorMatrix type="matrix" values="0 0 0 0 0 0 0 0 0 0 0 0 0 0 0 0 0 0 0.45 0"/>
<feBlend mode="normal" in2="BackgroundImageFix" result="effect1_dropShadow_385_7850"/>
<feBlend mode="normal" in="SourceGraphic" in2="effect1_dropShadow_385_7850" result="shape"/>
</filter>
</defs>
</svg>
